<?xml version="1.0" standalone="no"?>
<!DOCTYPE svg PUBLIC "-//W3C//DTD SVG 20010904//EN"
 "http://www.w3.org/TR/2001/REC-SVG-20010904/DTD/svg10.dtd">
<svg version="1.0" xmlns="http://www.w3.org/2000/svg"
 width="500.000000pt" height="500.000000pt" viewBox="0 0 500.000000 500.000000"
 preserveAspectRatio="xMidYMid meet">

<g transform="translate(0.000000,500.000000) scale(0.100000,-0.100000)"
fill="#000000" stroke="none">
<path d="M3599 2839 c-217 -24 -334 -195 -368 -534 -23 -228 29 -358 169 -424
50 -24 66 -26 180 -25 142 0 215 19 305 78 l50 33 23 179 c13 98 26 198 29
222 l6 42 -185 0 -184 0 -15 -110 -15 -110 51 0 c29 0 54 -2 56 -4 3 -3 3 -23
1 -46 -5 -50 -25 -63 -100 -64 -48 0 -57 3 -82 30 -36 41 -43 103 -25 234 28
205 62 269 151 277 39 4 54 1 74 -15 22 -18 25 -28 25 -91 l0 -71 127 0 126 0
7 65 c17 152 -32 258 -140 306 -64 28 -169 40 -266 28z m229 -45 c103 -33 156
-121 150 -251 l-3 -68 -98 0 -99 0 -3 53 c-4 58 -22 95 -56 113 -30 16 -115 6
-147 -18 -63 -45 -112 -215 -112 -390 0 -96 21 -151 65 -171 32 -15 122 -16
163 -1 27 9 32 16 37 57 4 26 9 59 11 75 6 27 5 27 -51 27 l-57 0 7 68 c12
108 3 103 173 100 l147 -3 -3 -50 c-2 -27 -13 -119 -25 -204 l-22 -154 -59
-33 c-77 -42 -166 -64 -262 -64 -265 0 -367 149 -320 469 43 293 126 415 309
457 74 16 182 11 255 -12z"/>
<path d="M1089 2828 c0 -2 -28 -217 -63 -478 l-62 -475 124 -3 c69 -1 126 -1
129 1 2 2 11 62 20 133 14 109 20 134 42 161 14 18 28 29 32 25 4 -4 21 -56
38 -117 18 -60 39 -131 47 -157 l16 -48 139 0 c76 0 139 2 139 5 0 3 -41 131
-91 286 -77 239 -88 283 -77 297 7 9 77 94 156 189 78 95 142 175 142 178 0 3
-69 5 -154 5 l-154 0 -98 -135 c-53 -74 -99 -133 -101 -132 -1 2 4 55 12 117
8 63 15 122 15 132 0 16 -11 18 -125 18 -69 0 -125 -1 -126 -2z m221 -45 c0
-10 -9 -78 -19 -151 -15 -113 -16 -135 -4 -139 8 -3 20 3 28 13 7 11 58 81
112 156 l98 137 119 1 c111 0 118 -1 105 -17 -8 -10 -71 -87 -141 -172 -71
-85 -128 -159 -128 -165 0 -6 38 -130 85 -276 47 -145 85 -268 85 -272 0 -4
-47 -8 -105 -8 -124 0 -105 -24 -171 205 -26 88 -49 162 -51 165 -4 5 -9 -1
-68 -75 -26 -34 -31 -51 -45 -164 l-15 -126 -98 -3 c-96 -3 -97 -2 -97 21 0
12 25 212 55 442 30 231 55 426 55 433 0 9 27 12 100 12 89 0 100 -2 100 -17z"/>
<path d="M1955 2808 c-2 -13 -30 -216 -60 -453 -31 -236 -58 -442 -61 -457
l-6 -28 130 0 129 0 6 38 c3 20 16 118 28 217 21 167 24 181 47 199 14 11 38
47 53 80 l28 61 1 -132 c0 -72 3 -138 6 -147 17 -45 24 1 24 167 0 147 4 198
20 265 22 93 25 122 10 122 -15 0 -26 -29 -39 -100 -17 -92 -20 -100 -40 -100
-10 0 -26 -9 -36 -20 -10 -11 -20 -19 -22 -17 -1 2 6 68 17 147 11 79 20 152
20 162 0 16 -11 18 -125 18 -121 0 -125 -1 -130 -22z m222 -45 c-3 -21 -29
-216 -57 -433 -28 -217 -53 -405 -56 -417 -4 -22 -9 -23 -98 -23 -51 0 -95 2
-97 5 -3 2 21 201 53 442 31 241 58 444 58 451 0 9 27 12 101 12 l102 0 -6
-37z m49 -280 c-18 -52 -57 -133 -63 -133 -14 0 10 99 32 132 32 49 48 49 31
1z"/>
<path d="M2400 2823 c0 -5 -9 -74 -20 -155 -16 -120 -24 -153 -45 -184 -28
-41 -32 -89 -10 -114 13 -14 11 -42 -15 -240 -17 -123 -30 -232 -30 -242 0
-16 11 -18 119 -18 l119 0 5 28 c3 15 15 114 28 220 13 105 26 192 29 192 3 0
41 -99 85 -220 l80 -220 133 0 c72 0 132 1 133 3 0 1 28 216 63 477 l62 475
-119 3 c-66 1 -121 1 -122 0 -2 -2 -16 -101 -31 -220 -15 -120 -31 -218 -34
-218 -3 0 -15 26 -26 58 -10 31 -46 130 -79 219 l-60 163 -132 0 c-73 0 -133
-3 -133 -7z m273 -103 c16 -45 26 -88 23 -96 -3 -8 5 -31 18 -51 l24 -35 -40
-42 c-97 -100 -103 -106 -121 -100 -12 4 -20 -2 -26 -18 -8 -19 -10 -16 -10
22 -1 51 -18 120 -29 120 -19 0 -30 -23 -20 -40 6 -10 8 -25 5 -34 -7 -19 -94
-76 -115 -76 -20 0 -9 53 18 87 24 31 26 59 4 67 -13 5 -10 12 15 43 44 53 42
95 -2 56 -19 -18 -19 -17 -14 12 4 17 9 57 13 90 4 33 8 63 11 68 2 4 52 7
111 7 l107 0 28 -80z m427 62 c0 -26 -110 -865 -115 -879 -3 -9 -34 -13 -109
-13 l-104 0 -15 38 c-8 20 -47 126 -87 235 -72 195 -73 197 -54 218 l19 21 5
-28 c8 -44 35 -41 66 6 l27 41 13 -30 c8 -19 23 -33 39 -37 15 -4 30 -17 35
-30 14 -37 40 -31 40 10 0 18 9 45 20 59 24 30 26 51 5 43 -19 -7 -19 -19 5
165 29 223 15 199 120 199 80 0 90 -2 90 -18z m-324 -343 c12 -30 20 -56 18
-58 -9 -10 -27 20 -33 55 -3 21 -11 39 -17 41 -6 2 -23 -19 -38 -47 -32 -59
-45 -61 -21 -4 19 45 44 76 59 71 6 -2 20 -28 32 -58z m-320 -169 c-30 -30
-68 -77 -85 -104 -36 -57 -36 -54 -18 87 l12 89 37 12 c20 7 49 22 65 34 l28
21 7 -42 c8 -41 6 -43 -46 -97z m50 -61 c-18 -199 -92 -328 -149 -258 -26 33
-18 111 20 181 25 46 117 158 130 158 3 0 2 -36 -1 -81z m-3 -259 l-8 -55 -93
-3 -92 -3 0 28 c0 15 5 35 10 43 8 12 10 13 10 1 0 -23 31 -51 56 -51 32 0 90
54 106 97 17 47 22 19 11 -57z"/>
<path d="M2510 2644 c-9 -10 -10 -18 -2 -26 12 -12 32 -2 32 17 0 21 -16 26
-30 9z"/>
<path d="M131 1752 c-20 -21 -42 -57 -49 -79 -18 -60 -15 -161 7 -208 20 -45
69 -92 106 -101 23 -6 23 -8 29 -192 3 -103 9 -265 12 -361 l6 -174 -37 6
c-42 7 -93 42 -130 92 l-26 34 20 20 c23 23 50 72 61 111 7 25 4 29 -56 58
-36 18 -67 32 -69 32 -3 0 -5 -55 -5 -123 0 -112 2 -126 26 -172 15 -28 40
-65 58 -84 37 -40 113 -91 137 -91 20 0 29 -77 29 -260 0 -69 3 -155 7 -192
l6 -68 38 0 38 0 -4 47 c-3 27 -7 78 -9 115 l-5 68 52 25 c29 13 70 39 92 57
38 32 94 58 126 58 9 0 33 14 54 30 45 36 80 47 99 30 12 -9 17 -7 26 9 6 12
7 21 3 21 -4 0 -2 5 5 12 7 7 12 21 12 31 0 17 -5 19 -41 13 -134 -21 -235
-18 -226 7 4 15 118 45 171 46 22 1 66 -4 98 -11 58 -12 58 -13 77 -63 26 -71
59 -223 75 -342 7 -57 11 -103 9 -103 -1 0 -12 18 -23 39 -13 26 -39 52 -79
78 -33 21 -58 44 -56 51 3 7 -5 12 -19 12 -12 0 -40 16 -62 35 l-39 34 45 1
c54 1 155 22 167 34 4 4 -10 6 -32 3 -22 -3 -77 -10 -123 -16 -81 -11 -172
-44 -172 -63 0 -5 3 -8 8 -6 71 37 81 39 104 18 13 -10 31 -25 42 -33 17 -12
12 -16 -55 -38 -48 -15 -66 -25 -52 -27 12 -2 31 1 41 7 11 6 45 13 75 17 52
6 57 5 116 -35 48 -33 68 -54 88 -96 30 -60 42 -60 62 2 7 21 25 56 40 78 l27
40 64 -3 c97 -5 100 -6 100 -58 0 -33 4 -44 15 -44 9 0 27 -7 40 -16 l25 -16
0 89 0 89 37 -4 c27 -3 52 4 102 29 39 20 59 35 49 37 -10 2 -37 -9 -62 -23
-32 -19 -56 -25 -83 -23 -37 3 -38 4 -41 45 l-3 42 34 -6 c36 -5 83 13 106 41
18 21 8 20 -31 -4 -34 -21 -94 -28 -83 -10 3 6 -1 10 -9 10 -10 0 -16 9 -16
24 0 32 50 49 118 40 32 -4 52 -2 56 5 5 7 -7 12 -36 13 -67 3 -81 2 -115 -6
l-33 -8 0 45 0 45 63 7 c79 9 112 24 163 72 22 21 33 32 24 25 -10 -7 -24 -10
-33 -7 -10 4 -17 -1 -22 -15 -10 -32 -44 -47 -122 -55 l-73 -6 0 38 c0 36 5
42 58 81 31 23 72 54 89 68 18 14 50 32 70 40 29 10 32 13 15 14 -13 0 -33 -5
-44 -11 -19 -10 -20 -9 -14 15 17 69 16 78 -2 36 -11 -25 -23 -53 -26 -62 -3
-10 -36 -40 -73 -67 l-68 -50 -6 122 -6 122 31 27 c20 17 48 28 81 33 28 3 61
15 75 26 l25 20 -32 -15 c-18 -9 -44 -16 -60 -16 l-27 0 39 41 c22 23 31 37
20 31 -11 -6 -31 -22 -45 -37 -23 -25 -93 -75 -105 -75 -18 0 2 79 40 158 25
52 45 99 45 105 0 7 -8 -4 -18 -23 l-17 -35 -5 45 c-6 45 -6 44 -14 -25 -8
-65 -43 -156 -65 -169 -5 -4 -24 12 -42 34 -28 35 -38 40 -73 40 -32 0 -45 6
-63 28 -20 25 -21 25 -16 5 7 -28 -12 -30 -46 -6 -14 9 -21 11 -16 4 11 -19
63 -38 125 -46 49 -6 58 -11 83 -46 23 -34 27 -49 27 -108 l0 -68 -67 4 c-63
5 -71 8 -112 47 -24 22 -39 32 -33 21 21 -40 67 -73 112 -80 109 -15 100 -6
100 -101 0 -46 -2 -84 -5 -84 -3 0 -41 18 -84 40 -43 22 -82 40 -87 40 -5 0
-22 16 -37 36 -32 39 -49 39 -24 0 l16 -24 -41 6 c-28 3 -50 15 -70 36 l-30
31 26 -36 c22 -31 35 -38 74 -43 26 -4 96 -30 155 -59 l108 -52 -5 -35 c-3
-19 -6 -61 -6 -92 l0 -58 -32 0 c-38 0 -138 -44 -138 -60 0 -6 13 -1 30 11 39
29 140 40 140 15 0 -9 -7 -16 -15 -16 -21 0 -118 -50 -112 -57 3 -3 26 4 50
16 96 46 107 9 13 -43 -70 -39 -133 -103 -165 -168 -23 -47 -26 -42 -36 52 -4
36 -15 107 -26 159 -19 93 -24 176 -13 217 3 13 22 29 42 38 l37 16 -39 -5
c-38 -4 -38 -4 -32 25 3 16 1 32 -4 35 -5 3 -12 -12 -16 -34 -3 -22 -13 -42
-22 -46 -8 -3 -16 -4 -17 -3 -1 2 -11 19 -23 38 l-21 36 34 -4 c22 -3 35 0 35
7 0 6 -15 11 -34 11 -19 0 -44 8 -57 19 l-23 18 37 12 c20 7 37 17 37 22 0 6
-9 7 -22 3 -28 -10 -59 -12 -165 -13 -48 -1 -83 -5 -83 -11 0 -6 36 -10 89
-10 70 0 90 -3 95 -15 4 -11 -2 -15 -23 -15 -45 0 -183 -39 -203 -57 -24 -22
-15 -28 14 -9 32 21 152 48 201 44 30 -2 45 -10 60 -30 12 -15 18 -30 15 -33
-3 -3 -29 0 -58 6 -58 12 -130 6 -200 -16 -42 -14 -50 -13 -100 5 -30 11 -59
20 -64 20 -15 0 1 -105 24 -149 l21 -42 -56 -25 c-31 -14 -62 -24 -69 -21 -9
4 -16 56 -24 184 -16 241 -17 232 14 243 81 31 160 115 184 197 10 33 19 43
41 48 52 12 93 56 114 125 7 21 6 23 -7 12 -11 -9 -33 -10 -71 -6 l-56 7 -3
45 c-4 54 -28 71 -28 20 -1 -31 -2 -32 -15 -14 -8 10 -22 53 -31 95 -9 42 -20
80 -24 84 -14 15 -44 -68 -48 -133 -5 -88 11 -143 58 -194 l40 -43 -28 -54
c-31 -61 -79 -99 -127 -99 -32 0 -32 0 -38 63 -4 34 -10 145 -13 247 l-7 185
32 23 c34 24 78 101 64 111 -4 3 -28 19 -53 35 -25 16 -47 30 -49 33 -3 2 -7
22 -10 45 -7 51 -31 64 -31 18 0 -28 -2 -31 -16 -19 -20 17 -44 63 -44 87 0
11 11 36 25 56 20 30 22 36 8 36 -9 0 -32 -17 -52 -38z m306 -488 c-3 -3 -12
-4 -19 -1 -8 3 -5 6 6 6 11 1 17 -2 13 -5z m456 -733 c2 -10 1 -25 -4 -32 -5
-8 -9 -9 -9 -4 0 6 -3 20 -6 33 -4 12 -2 22 4 22 5 0 12 -9 15 -19z m327 -308
c0 -28 0 -28 -69 -28 -59 0 -68 2 -58 14 17 20 67 40 100 41 23 0 27 -4 27
-27z"/>
<path d="M3805 1291 c-62 -28 -105 -86 -105 -141 0 -15 5 -17 35 -10 77 17
131 68 142 133 5 32 3 37 -13 37 -11 0 -37 -9 -59 -19z"/>
<path d="M3570 1226 c0 -33 37 -74 78 -86 33 -9 34 -9 27 18 -7 32 -51 77 -82
87 -20 5 -23 3 -23 -19z"/>
<path d="M3378 1193 c-10 -2 -18 -7 -18 -9 0 -17 25 -46 50 -59 30 -16 120
-21 120 -7 0 14 -54 60 -83 71 -29 11 -40 12 -69 4z"/>
<path d="M3795 1130 c-11 -4 -33 -22 -50 -39 -25 -27 -27 -34 -15 -42 8 -5 37
-8 65 -5 39 4 56 13 83 40 19 18 31 39 28 45 -8 13 -81 14 -111 1z"/>
<path d="M3494 1080 c-24 -10 -54 -47 -54 -68 0 -32 83 20 93 59 6 20 -5 23
-39 9z"/>
<path d="M3626 1008 c38 -50 54 -78 50 -92 -2 -12 -10 -95 -17 -186 -6 -91
-14 -168 -18 -172 -3 -4 -38 20 -77 52 -62 51 -72 65 -79 102 -7 37 -9 39 -12
16 -5 -33 -9 -34 -37 -10 -21 17 -21 17 -5 -3 9 -11 60 -69 112 -128 l97 -109
-7 -61 c-3 -34 -7 -63 -8 -65 -2 -3 -327 97 -332 102 -2 2 -7 30 -12 62 l-9
59 -1 -58 c-1 -56 -2 -58 -23 -51 -53 16 -49 12 21 -22 l73 -35 -7 -65 c-3
-35 -4 -64 -2 -64 3 0 13 24 23 52 9 29 18 55 20 57 2 2 58 -20 125 -50 l121
-54 -6 -75 c-4 -41 -9 -105 -12 -142 l-7 -68 91 0 90 0 -5 64 -6 65 34 14 c19
7 57 22 86 32 l51 18 54 -44 c51 -42 51 -34 -1 23 -13 15 -23 30 -20 32 2 2
65 27 138 55 74 29 140 56 145 60 6 5 26 12 43 16 18 3 35 10 38 15 3 4 -12 4
-33 -1 -128 -32 -143 -34 -152 -19 -6 8 -10 47 -11 85 l-2 70 -14 -91 -15 -90
-171 -42 c-94 -23 -172 -40 -173 -39 -2 2 -10 88 -19 192 -14 176 -14 190 2
209 9 12 62 68 118 125 100 105 95 103 -61 -22 -39 -31 -73 -57 -76 -57 -3 0
-11 85 -18 190 -7 104 -17 187 -22 184 -4 -3 -8 -17 -8 -31 0 -25 -2 -24 -50
21 -27 25 -52 46 -54 46 -3 0 19 -32 50 -72z"/>
<path d="M3890 1045 c0 -8 7 -32 16 -54 16 -40 40 -62 82 -75 28 -9 29 12 3
71 -25 53 -101 97 -101 58z"/>
<path d="M1850 1009 c80 -4 187 -13 238 -19 52 -6 96 -10 98 -7 13 12 -249 37
-376 35 l-105 -1 145 -8z"/>
<path d="M2533 963 l48 -53 -21 -39 c-28 -56 -25 -65 5 -13 29 51 26 59 -36
117 l-43 40 47 -52z"/>
<path d="M4105 981 c-23 -10 -75 -60 -75 -72 0 -17 94 -9 127 11 41 25 59 56
37 64 -21 8 -65 6 -89 -3z"/>
<path d="M3336 944 c16 -69 49 -105 107 -119 32 -8 35 6 13 58 -18 43 -55 75
-95 83 -31 7 -32 6 -25 -22z"/>
<path d="M1845 940 c120 -9 324 -31 420 -46 22 -4 37 -3 33 1 -13 14 -283 45
-433 49 l-150 5 130 -9z"/>
<path d="M2375 909 c-4 -6 -4 -34 0 -64 l6 -53 -58 14 c-104 25 -250 44 -416
54 -198 12 -197 12 -197 2 0 -5 78 -12 173 -15 241 -9 489 -49 515 -84 13 -17
14 -16 7 6 -5 18 -4 22 6 16 9 -6 11 -2 7 13 -4 14 -2 20 5 15 6 -4 8 0 4 10
-4 10 -2 17 4 17 6 0 9 6 6 14 -3 8 -1 17 6 19 7 2 9 7 6 11 -4 4 -14 0 -23
-9 -9 -9 -16 -13 -17 -8 -1 4 -5 -3 -10 -17 -6 -18 -7 -12 -3 23 5 44 -5 62
-21 36z"/>
<path d="M3814 884 c-13 -31 -14 -45 -5 -76 7 -21 16 -38 20 -38 5 0 17 17 26
37 13 28 16 45 9 72 -12 48 -31 50 -50 5z"/>
<path d="M2938 903 c7 -3 16 -2 19 1 4 3 -2 6 -13 5 -11 0 -14 -3 -6 -6z"/>
<path d="M2854 883 c-67 -39 -64 -28 -37 -133 29 -115 47 -284 38 -363 -3 -31
-2 -56 2 -55 4 1 28 -7 52 -17 l44 -20 -7 -147 -7 -148 37 0 36 0 -4 103 c-7
134 9 345 28 375 10 14 24 22 44 22 15 0 35 7 43 14 13 13 17 13 33 0 18 -15
18 -15 -4 -11 -27 6 -20 -8 8 -16 11 -3 18 -1 15 3 -3 5 0 12 6 16 27 17 -22
114 -59 114 -7 0 -22 -10 -32 -22 -27 -34 -33 -17 -16 43 9 29 16 61 16 71 0
30 -20 20 -27 -12 -4 -23 -9 -28 -18 -20 -15 13 -25 -7 -25 -51 0 -19 -5 -29
-15 -29 -20 0 -19 16 5 68 23 51 18 92 -11 92 -11 0 -22 7 -25 15 -11 28 -24
15 -25 -22 0 -35 -1 -36 -11 -15 -6 12 -15 22 -20 22 -14 0 -9 -32 13 -89 11
-30 18 -65 15 -77 -4 -13 -2 -26 4 -29 5 -3 10 -16 10 -28 0 -13 -12 3 -30 41
-17 35 -30 75 -30 88 0 15 -6 24 -15 24 -8 0 -15 9 -15 20 0 10 -8 24 -18 29
-10 5 -24 29 -31 52 -12 38 -11 44 8 63 12 12 36 26 54 33 17 6 25 12 17 12
-8 1 -29 -7 -46 -16z m135 -190 c1 -7 -3 -13 -9 -13 -5 0 -10 15 -9 33 0 27 2
29 9 12 5 -11 9 -26 9 -32z m-115 -86 c-4 -11 2 -28 14 -40 37 -41 53 -88 59
-173 l6 -84 -31 11 c-17 6 -35 16 -40 22 -5 7 -12 75 -15 152 -3 77 -8 149
-12 160 -4 14 -2 12 9 -5 8 -14 13 -33 10 -43z"/>
<path d="M2666 875 c-3 -9 -6 -33 -6 -53 l-1 -37 -14 25 c-8 14 -14 33 -15 43
0 10 -4 16 -9 13 -5 -3 -7 -16 -4 -29 4 -18 3 -19 -6 -7 -9 13 -11 13 -11 -2
0 -9 4 -19 10 -23 5 -3 7 -12 4 -20 -3 -8 4 -20 15 -27 14 -9 21 -22 20 -43
-2 -27 -2 -28 -6 -5 -6 32 -23 51 -23 26 0 -16 -4 -14 -21 8 -11 14 -25 24
-30 20 -5 -3 5 -24 23 -47 32 -41 32 -41 5 -20 -16 13 -35 19 -45 16 -14 -6
-14 -8 3 -17 10 -6 36 -26 57 -45 31 -27 38 -40 38 -70 l0 -36 -20 30 c-11 16
-22 42 -26 57 -5 26 -24 40 -24 18 0 -5 -7 -7 -16 -3 -28 10 -6 -57 28 -85 30
-26 61 -77 56 -93 -2 -5 -30 25 -63 67 -32 43 -61 72 -63 65 -4 -11 3 -23 49
-86 l23 -30 -30 28 c-49 44 -62 31 -16 -16 31 -32 38 -43 25 -42 -10 0 -24 4
-31 9 -12 7 -16 1 -13 -18 1 -5 -5 -4 -13 4 -19 15 -20 3 -3 -33 7 -16 28 -32
55 -43 45 -17 76 -52 70 -78 -2 -12 -21 0 -67 41 -35 31 -73 57 -85 58 -96 7
-346 51 -342 59 3 6 10 28 17 49 14 43 -10 42 207 11 63 -8 116 -13 118 -11 6
6 -89 22 -211 37 -49 6 -90 12 -91 13 -2 1 3 21 9 45 13 48 4 47 151 27 61 -8
111 -13 113 -11 5 5 -101 23 -184 32 -35 4 -63 9 -63 13 0 3 -33 6 -72 6 -40
1 -165 4 -278 7 -197 6 -199 6 -45 -2 88 -6 205 -13 260 -17 98 -8 100 -8 97
-32 -10 -70 -4 -68 -163 -54 -199 17 -422 23 -440 12 -9 -5 38 -9 127 -9 l141
0 7 -37 c12 -73 23 -68 -153 -65 -92 2 -172 -1 -192 -7 -30 -9 -25 -10 37 -7
l71 3 16 -48 15 -49 -71 -1 c-40 -1 -83 -5 -97 -9 -15 -5 14 -6 72 -3 l97 6
15 -38 c9 -21 16 -41 16 -46 0 -5 -42 -9 -94 -9 -52 0 -97 -3 -99 -8 -3 -4 42
-5 99 -4 l104 4 20 -44 19 -43 -154 -5 c-84 -3 -157 -9 -162 -14 -4 -4 37 -5
94 -1 56 4 133 4 171 0 73 -7 73 -7 111 -89 2 -5 -69 -6 -168 -1 -108 4 -171
3 -171 -3 0 -5 61 -10 148 -11 165 -2 206 -7 223 -27 6 -8 18 -14 26 -14 13 0
13 3 3 15 -11 13 -7 15 23 15 24 0 40 -6 46 -17 9 -16 12 -16 21 -3 9 13 11
13 19 1 7 -11 13 -12 23 -3 11 8 37 9 99 2 46 -5 104 -9 129 -9 37 1 -141 26
-202 28 -16 1 -16 4 -1 46 l15 46 42 -6 c140 -19 379 -45 383 -41 6 6 -45 13
-236 36 -96 11 -176 22 -179 24 -8 9 21 78 35 83 8 3 105 -6 215 -22 109 -15
201 -25 204 -22 5 5 -78 18 -278 44 -76 10 -138 21 -138 26 0 4 7 23 14 42 18
42 14 42 196 14 74 -11 157 -22 183 -26 33 -4 53 -13 66 -29 10 -12 33 -35 52
-50 25 -21 20 -14 -16 26 -57 62 -43 58 -285 91 -91 12 -167 23 -169 25 -2 2
5 24 15 49 l17 46 51 -6 c28 -3 110 -15 183 -27 130 -21 132 -21 170 -61 l38
-40 -39 23 c-65 39 -37 0 36 -50 74 -50 78 -61 78 -201 0 -62 2 -69 20 -69 19
0 20 7 20 119 l0 119 70 51 c39 28 70 56 70 62 0 11 -7 8 -55 -24 -25 -17 -23
-12 13 24 37 39 53 69 37 69 -3 0 -34 -30 -70 -67 -59 -62 -64 -66 -65 -42 0
27 21 50 84 92 26 17 40 35 42 52 3 25 -9 34 -21 15 -3 -5 -16 -15 -28 -22
-17 -9 -15 -3 11 26 31 35 42 66 23 66 -5 0 -12 -7 -15 -16 -3 -9 -11 -12 -18
-8 -8 5 1 18 27 41 45 39 39 57 -8 23 l-32 -24 33 41 c31 39 42 68 23 61 -5
-1 -32 -31 -61 -66 -29 -35 -55 -61 -58 -58 -11 12 23 68 49 82 47 24 66 78
29 81 -11 1 -20 -4 -20 -10 0 -7 -13 -28 -30 -47 l-29 -35 -1 31 c0 23 6 34
25 42 14 7 25 20 25 31 0 10 7 24 15 31 8 7 15 19 15 28 0 12 -4 12 -22 -4
l-21 -19 17 27 c10 15 16 35 14 45 -3 13 -13 2 -33 -36 l-30 -55 -3 75 c-3 74
-14 105 -26 74z m-545 -332 l27 -5 -16 -45 -17 -45 -115 7 c-63 4 -116 8 -117
9 -2 1 -6 24 -10 51 l-6 48 114 -7 c62 -4 125 -10 140 -13z m622 -75 c-11 -13
-28 -34 -37 -48 l-17 -25 3 40 c2 32 7 40 28 46 42 12 44 10 23 -13z m-948
-17 l60 -6 6 -42 5 -43 -101 0 -102 0 -11 39 c-7 21 -12 43 -12 50 0 12 56 13
155 2z m301 -20 c7 -4 5 -20 -8 -49 l-19 -43 -87 7 c-48 4 -87 7 -88 8 -1 0
-4 23 -7 49 l-7 48 103 -7 c56 -4 107 -9 113 -13z m554 -38 c0 -26 -21 -22
-57 11 l-38 35 48 -17 c26 -9 47 -22 47 -29z m-794 -51 c6 -4 15 -27 19 -51
l7 -44 -32 7 c-18 3 -58 6 -90 6 -54 0 -59 2 -68 28 -5 15 -13 35 -17 45 -6
15 1 17 81 17 49 0 94 -4 100 -8z m203 -18 c2 -2 -4 -22 -14 -45 l-19 -41 -55
6 c-61 7 -71 16 -71 65 l0 33 78 -7 c42 -4 79 -9 81 -11z m-177 -97 c4 -7 8
-29 8 -51 0 -31 -3 -37 -16 -32 -9 3 -39 6 -68 6 -52 0 -52 0 -74 45 -12 25
-22 48 -22 52 0 11 165 -9 172 -20z m135 -2 c2 -1 -4 -22 -12 -46 -15 -43 -17
-45 -49 -41 -30 3 -34 8 -40 40 -10 62 -11 62 47 55 28 -3 53 -7 54 -8z m-163
-91 l46 -7 0 -43 0 -44 -39 0 c-36 0 -42 4 -70 50 l-31 50 24 0 c13 0 44 -3
70 -6z m123 -18 c1 -1 -3 -21 -9 -44 -12 -48 -38 -58 -38 -14 0 15 -3 38 -7
51 -6 22 -4 23 23 17 16 -4 30 -9 31 -10z"/>
<path d="M3529 861 c-32 -32 -39 -57 -13 -47 9 3 19 6 23 6 13 0 51 41 51 55
0 24 -29 17 -61 -14z"/>
<path d="M3247 822 c-17 -7 -16 -9 4 -30 27 -29 67 -45 96 -37 20 5 21 8 11
25 -12 19 -67 51 -85 49 -4 0 -16 -4 -26 -7z"/>
<path d="M783 801 c-24 -16 -48 -19 -119 -18 -69 2 -96 -2 -121 -16 -50 -27
-39 -39 14 -15 39 17 58 19 116 14 67 -6 126 9 143 36 11 18 -2 17 -33 -1z"/>
<path d="M2520 760 c-7 -28 -10 -53 -8 -55 3 -3 10 18 16 47 7 28 11 53 8 55
-2 2 -9 -19 -16 -47z"/>
<path d="M1558 783 c7 -3 16 -2 19 1 4 3 -2 6 -13 5 -11 0 -14 -3 -6 -6z"/>
<path d="M2460 764 c-6 -14 -10 -28 -10 -32 0 -4 -4 -13 -8 -20 -7 -10 -21
-10 -73 2 -114 27 -687 72 -669 53 3 -2 97 -10 210 -17 343 -19 501 -44 531
-82 15 -20 16 -20 34 8 10 15 14 29 9 31 -5 2 -9 21 -8 43 1 47 -3 50 -16 14z"/>
<path d="M3130 761 c0 -40 28 -90 62 -111 65 -39 84 -21 49 48 -23 46 -48 68
-83 77 -24 6 -28 4 -28 -14z"/>
<path d="M2501 644 c0 -11 3 -14 6 -6 3 7 2 16 -1 19 -3 4 -6 -2 -5 -13z"/>
<path d="M3310 632 l-24 -20 32 -6 c32 -8 84 10 86 29 2 19 -69 17 -94 -3z"/>
<path d="M4179 621 c-29 -30 -42 -91 -18 -91 22 0 79 68 79 94 0 35 -24 34
-61 -3z"/>
<path d="M2492 600 c0 -14 2 -19 5 -12 2 6 2 18 0 25 -3 6 -5 1 -5 -13z"/>
<path d="M3957 581 c-17 -6 -14 -11 22 -44 34 -31 48 -37 85 -37 56 0 63 10
28 42 -49 46 -89 57 -135 39z"/>
<path d="M2482 545 c0 -16 2 -22 5 -12 2 9 2 23 0 30 -3 6 -5 -1 -5 -18z"/>
<path d="M4381 537 c-13 -14 -25 -43 -28 -67 l-6 -42 42 21 c33 17 41 27 41
49 0 16 -6 36 -13 46 -12 16 -14 15 -36 -7z"/>
<path d="M4491 499 c-24 -27 -42 -52 -39 -54 7 -7 88 81 88 95 0 14 1 14 -49
-41z"/>
<path d="M4267 514 c-13 -13 -8 -79 8 -101 22 -31 45 -19 45 23 0 34 -39 92
-53 78z"/>
<path d="M3090 489 c-38 -15 -60 -40 -60 -66 0 -18 5 -23 24 -23 28 0 76 51
76 81 0 21 -4 22 -40 8z"/>
<path d="M4486 439 c-46 -47 -47 -50 -20 -43 67 16 74 22 74 59 0 19 -1 35 -2
35 -2 0 -25 -23 -52 -51z"/>
<path d="M3966 441 c-16 -17 -15 -19 13 -31 34 -14 77 -7 104 18 24 21 6 32
-54 32 -32 0 -51 -6 -63 -19z"/>
<path d="M4155 420 c-3 -6 5 -10 19 -10 14 0 28 5 31 10 3 6 -5 10 -19 10 -14
0 -28 -4 -31 -10z"/>
<path d="M4383 417 c-14 -8 -19 -17 -14 -25 6 -10 12 -7 25 12 19 30 19 30
-11 13z"/>
<path d="M721 376 c-28 -29 -41 -34 -95 -39 -71 -7 -116 -24 -116 -44 0 -11 4
-11 23 2 13 8 56 19 97 24 62 8 77 14 106 42 19 18 34 37 34 41 0 16 -17 7
-49 -26z"/>
<path d="M3234 353 c7 -28 48 -73 67 -73 22 0 1 63 -30 87 -28 22 -44 16 -37
-14z"/>
<path d="M4012 364 c-12 -8 -20 -20 -17 -25 11 -17 54 -9 82 16 l28 24 -35 1
c-20 0 -46 -7 -58 -16z"/>
<path d="M4445 331 c16 -32 51 -61 72 -61 8 0 13 14 13 39 0 43 -10 51 -66 51
l-35 0 16 -29z"/>
<path d="M4375 321 c-10 -32 3 -76 30 -101 l23 -22 6 29 c8 35 -4 71 -32 96
-20 18 -20 18 -27 -2z"/>
<path d="M3213 270 c-13 -5 -23 -14 -23 -19 0 -22 68 -28 102 -10 21 11 21 12
-3 25 -28 15 -45 16 -76 4z"/>
<path d="M3252 193 c-30 -15 -62 -57 -62 -83 0 -5 12 -10 26 -10 32 0 94 59
94 89 0 25 -14 26 -58 4z"/>
<path d="M3337 168 c6 -35 27 -64 55 -79 30 -16 24 56 -7 86 -36 36 -56 33
-48 -7z"/>
<path d="M4101 158 c-40 -21 -38 -38 6 -38 36 0 84 22 73 33 -13 14 -58 16
-79 5z"/>
<path d="M4098 93 c-16 -4 -16 -7 -3 -27 9 -13 27 -28 41 -34 26 -12 84 -16
84 -6 0 19 -26 48 -55 60 -35 14 -38 15 -67 7z"/>
<path d="M4026 54 c-13 -35 -7 -54 19 -54 28 0 30 8 13 45 -13 29 -23 32 -32
9z"/>
<path d="M1093 3 c9 -2 25 -2 35 0 9 3 1 5 -18 5 -19 0 -27 -2 -17 -5z"/>
<path d="M1268 3 c12 -2 32 -2 45 0 12 2 2 4 -23 4 -25 0 -35 -2 -22 -4z"/>
</g>
</svg>
