<?xml version="1.0" standalone="no"?>
<!DOCTYPE svg PUBLIC "-//W3C//DTD SVG 20010904//EN"
 "http://www.w3.org/TR/2001/REC-SVG-20010904/DTD/svg10.dtd">
<svg version="1.0" xmlns="http://www.w3.org/2000/svg"
 width="800.000000pt" height="488.000000pt" viewBox="0 0 800.000000 488.000000"
 preserveAspectRatio="xMidYMid meet">

<g transform="translate(0.000000,488.000000) scale(0.100000,-0.100000)"
fill="#000000" stroke="none">
<path d="M5740 4540 c-140 -19 -276 -93 -360 -196 -20 -24 -83 -131 -97 -164
-27 -64 -32 -78 -46 -125 -17 -57 -39 -164 -59 -280 -7 -44 -13 -152 -13 -240
0 -150 2 -166 29 -247 31 -93 85 -174 150 -223 104 -79 285 -115 482 -97 65 7
133 16 149 21 164 53 311 133 319 174 4 20 16 110 36 267 5 36 16 119 25 185
9 66 19 148 22 183 l5 62 -290 0 -289 0 -6 -37 c-7 -39 -9 -56 -28 -198 -6
-44 -13 -88 -15 -97 -5 -15 5 -18 83 -20 l88 -3 -2 -55 c-1 -30 -5 -65 -8 -77
-8 -35 -58 -53 -147 -53 -71 0 -84 3 -117 27 -60 43 -74 87 -73 228 0 254 61
495 144 572 51 48 149 66 205 38 57 -28 68 -58 67 -172 l-1 -103 202 0 202 0
7 46 c13 98 7 240 -14 306 -19 62 -71 143 -115 180 -31 26 -114 67 -159 79
-99 26 -263 34 -376 19z m377 -65 c72 -25 137 -65 175 -110 16 -19 25 -36 59
-109 15 -31 20 -256 7 -288 -7 -16 -24 -18 -161 -18 l-154 0 -5 95 c-5 88 -8
99 -35 133 -71 88 -263 72 -340 -28 -60 -77 -102 -243 -123 -485 -19 -216 19
-334 118 -375 67 -27 266 -4 288 32 4 6 10 40 14 77 5 36 11 85 15 109 l8 42
-93 0 -92 0 6 33 c3 17 10 70 16 117 6 47 13 93 16 103 5 16 26 17 249 17 143
0 246 -4 250 -9 3 -6 1 -41 -5 -78 -6 -37 -15 -99 -20 -138 -8 -63 -23 -174
-48 -364 -5 -36 -14 -67 -21 -69 -6 -2 -17 -9 -24 -15 -25 -23 -49 -36 -162
-87 -99 -45 -330 -71 -448 -50 -171 30 -278 96 -339 210 -72 134 -82 305 -39
610 34 232 103 400 211 510 73 75 146 118 241 143 130 34 321 30 436 -8z"/>
<path d="M4626 4485 c-8 -50 -34 -243 -47 -350 -5 -44 -14 -104 -19 -134 -6
-30 -10 -80 -10 -111 0 -31 -3 -59 -6 -63 -11 -10 -34 5 -34 22 0 9 -4 21 -8
27 -4 5 -16 34 -26 64 -10 30 -25 73 -33 95 -8 22 -19 49 -23 60 -4 11 -15 40
-25 65 -29 74 -31 81 -73 195 -23 61 -44 122 -48 138 l-6 27 -214 0 c-164 0
-214 -3 -214 -12 -1 -7 -5 -44 -10 -83 -18 -145 -40 -312 -46 -355 -4 -25 -16
-56 -28 -70 -43 -49 -56 -79 -56 -131 0 -35 6 -60 21 -80 19 -27 20 -35 10
-126 -6 -54 -15 -127 -21 -163 -5 -36 -17 -121 -25 -190 -14 -109 -22 -171
-40 -292 -3 -16 0 -28 5 -28 6 0 92 -1 193 -1 l182 0 7 38 c4 21 12 76 17 123
16 121 40 303 51 382 6 37 10 90 10 118 0 35 4 50 12 48 13 -5 19 -15 43 -78
10 -25 21 -54 25 -65 4 -11 22 -60 40 -110 17 -49 38 -104 46 -122 8 -17 14
-36 14 -42 0 -6 4 -19 9 -29 10 -20 29 -68 67 -172 14 -41 30 -78 34 -83 3 -4
97 -9 209 -10 l202 -2 8 35 c5 19 12 69 15 110 4 41 11 98 16 125 5 28 16 111
25 185 9 74 20 160 25 190 5 30 12 82 15 115 3 33 10 87 15 120 5 33 16 116
25 185 8 69 20 154 26 190 5 36 14 103 19 150 5 47 12 95 16 107 l6 22 -195 3
-195 3 -6 -40z m-364 -90 c39 -102 43 -114 57 -148 8 -21 8 -32 -1 -47 -15
-23 4 -66 50 -115 25 -28 25 -29 7 -39 -31 -17 -115 -105 -115 -120 0 -23
-101 -94 -140 -98 -27 -2 -36 -8 -38 -25 -2 -13 -8 -23 -13 -23 -5 0 -9 33 -9
73 0 135 -41 216 -79 155 -12 -19 -11 -23 3 -33 28 -21 19 -63 -20 -98 -50
-44 -124 -87 -152 -87 -23 0 -24 2 -17 52 6 39 16 63 41 92 35 41 47 96 20 96
-7 0 -19 6 -25 13 -8 11 -5 19 15 38 33 30 74 94 74 114 0 26 -27 28 -50 5
-12 -12 -23 -20 -25 -18 -3 3 14 156 31 266 l5 32 176 -2 176 -3 29 -80z m701
60 c-3 -37 -23 -199 -38 -315 -9 -63 -20 -150 -25 -193 -5 -44 -11 -91 -14
-105 -3 -15 -11 -67 -17 -117 -6 -49 -17 -139 -25 -200 -7 -60 -16 -130 -19
-155 -3 -25 -12 -91 -20 -148 -8 -56 -15 -117 -15 -135 0 -55 -8 -57 -190 -57
-163 0 -167 0 -177 23 -9 19 -23 54 -53 132 -39 101 -90 243 -90 249 0 5 -6
22 -14 39 -8 18 -33 84 -56 147 -23 63 -46 125 -51 138 -8 19 -4 28 23 53 18
16 36 29 40 29 4 0 8 -19 10 -42 3 -40 5 -43 33 -46 26 -2 34 3 58 43 15 25
27 50 27 54 0 11 26 22 34 14 3 -4 6 -15 6 -25 0 -28 54 -78 83 -78 20 0 28
-8 41 -40 11 -27 22 -40 35 -40 15 0 19 10 24 57 4 40 14 68 36 99 38 52 40
68 6 60 l-26 -7 7 68 c3 38 8 75 11 83 2 8 7 38 9 65 3 28 11 93 19 145 8 52
17 119 20 148 10 88 -1 83 164 80 139 -3 146 -4 144 -23z m-553 -459 c0 -2 3
-12 7 -21 5 -14 2 -16 -15 -11 -17 6 -27 -5 -69 -74 -47 -79 -71 -102 -59 -57
19 78 82 167 117 167 10 0 19 -2 19 -4z m45 -120 c23 -66 18 -94 -10 -65 -19
19 -40 102 -31 124 9 24 15 16 41 -59z m-695 -22 c0 -8 -4 -12 -10 -9 -5 3
-10 10 -10 16 0 5 5 9 10 9 6 0 10 -7 10 -16z m247 -70 l3 -69 -81 -84 c-74
-77 -169 -207 -169 -231 0 -6 -4 -10 -10 -10 -5 0 -10 8 -10 18 0 14 20 184
36 300 4 24 12 36 32 43 62 24 129 61 152 83 14 14 30 24 35 22 6 -1 11 -34
12 -72z m8 -171 c-27 -287 -37 -332 -87 -420 -32 -58 -80 -103 -109 -103 -27
0 -56 32 -70 80 -26 85 35 246 139 370 61 73 109 120 121 120 6 0 8 -19 6 -47z
m-5 -460 c-18 -137 1 -124 -168 -121 l-147 3 2 33 c2 47 12 82 23 82 6 0 10
-8 10 -17 0 -9 12 -30 27 -45 47 -49 128 -31 180 41 34 46 63 100 63 118 0 13
3 14 11 6 8 -8 8 -35 -1 -100z"/>
<path d="M4016 4231 c-20 -22 -12 -51 14 -51 21 0 34 29 24 54 -8 21 -17 20
-38 -3z"/>
<path d="M1736 4483 c-3 -21 -8 -65 -11 -98 -3 -33 -10 -87 -15 -120 -5 -33
-16 -116 -25 -185 -8 -69 -20 -154 -25 -190 -5 -36 -12 -90 -15 -120 -3 -30
-10 -82 -15 -115 -5 -33 -16 -116 -25 -185 -9 -69 -20 -156 -25 -195 -6 -38
-15 -106 -20 -150 -5 -44 -12 -93 -15 -110 l-7 -30 204 2 203 2 8 53 c4 29 12
80 17 113 5 33 15 106 21 163 10 84 17 108 36 130 14 15 31 37 40 50 28 41 31
36 82 -138 41 -139 44 -148 81 -270 l32 -105 219 0 c183 0 219 2 219 14 0 8
-11 46 -24 85 -13 39 -38 118 -56 176 -17 58 -36 114 -40 125 -5 11 -34 101
-65 200 -32 99 -68 213 -82 253 l-24 73 28 33 c15 18 44 52 64 77 50 61 247
298 322 388 34 41 68 83 75 93 13 17 4 18 -232 18 l-246 0 -87 -119 c-49 -65
-96 -129 -105 -142 -86 -120 -124 -167 -131 -162 -5 3 -6 15 -3 27 6 21 33
218 42 306 3 25 6 55 8 68 l3 22 -203 0 -202 0 -6 -37z m364 -15 c0 -17 -27
-226 -40 -303 -5 -33 -12 -86 -16 -117 -6 -57 -6 -58 19 -58 14 0 27 4 29 9 2
4 13 21 25 37 13 16 49 65 80 109 32 44 61 85 66 90 4 6 40 55 80 110 108 151
75 136 292 133 l188 -3 -59 -70 c-32 -38 -61 -72 -64 -75 -3 -3 -32 -39 -65
-80 -33 -41 -62 -77 -65 -80 -41 -40 -200 -243 -200 -256 0 -15 41 -152 60
-199 5 -11 23 -67 40 -125 17 -58 35 -114 40 -125 4 -11 29 -87 55 -170 25
-82 50 -157 54 -165 5 -9 12 -35 16 -58 l7 -42 -176 0 c-133 0 -178 3 -180 13
-3 6 -12 39 -21 72 -10 33 -30 102 -46 154 -16 52 -29 102 -29 112 0 10 -4 21
-10 24 -5 3 -10 14 -10 23 0 9 -13 57 -28 105 l-28 88 -77 -94 c-65 -80 -77
-100 -77 -131 0 -21 -4 -56 -9 -79 -5 -23 -15 -87 -21 -142 -19 -163 3 -146
-179 -143 l-156 3 2 30 c2 31 14 123 39 315 8 63 19 150 24 193 5 44 11 91 14
105 3 15 10 63 15 107 10 85 38 299 45 350 2 17 12 91 21 165 9 74 19 145 21
158 4 22 6 22 164 22 121 0 160 -3 160 -12z"/>
<path d="M3120 4418 c-6 -57 -16 -123 -20 -148 -5 -25 -12 -76 -15 -115 -4
-38 -10 -92 -15 -120 -5 -27 -16 -111 -25 -185 -9 -74 -20 -157 -25 -185 -5
-27 -12 -81 -15 -120 -4 -38 -10 -92 -15 -120 -5 -27 -16 -111 -25 -185 -9
-74 -21 -159 -26 -188 -6 -30 -9 -56 -6 -58 2 -3 94 -6 204 -7 l200 -2 17 135
c9 74 21 158 26 185 5 28 12 82 15 120 4 39 10 93 15 120 5 28 12 76 16 108 5
53 8 58 38 71 37 16 52 36 91 131 15 39 32 74 37 80 4 5 8 -83 8 -197 0 -201
8 -268 33 -268 9 0 11 63 8 237 -4 261 6 372 45 515 28 101 31 158 9 158 -21
0 -41 -53 -60 -155 -26 -147 -32 -162 -66 -162 -20 0 -41 -11 -65 -34 l-36
-34 7 50 c3 28 10 77 15 110 9 53 35 261 44 338 l3 27 -203 0 -202 0 -12 -102z
m365 5 c-3 -32 -10 -83 -15 -113 -5 -30 -16 -116 -25 -190 -9 -74 -20 -157
-25 -185 -5 -27 -12 -81 -15 -120 -4 -38 -10 -92 -15 -120 -5 -27 -16 -111
-25 -185 -9 -74 -20 -157 -25 -185 -5 -27 -12 -81 -15 -120 -4 -38 -11 -94
-17 -122 l-11 -53 -153 0 c-84 0 -155 3 -157 8 -4 6 13 173 27 262 3 19 12 91
21 160 9 69 20 152 25 185 5 33 12 87 15 120 3 33 10 85 15 115 5 30 16 116
25 190 9 74 20 158 25 185 5 28 12 82 15 120 11 115 -6 105 176 105 l160 0 -6
-57z m90 -415 c-22 -80 -103 -250 -115 -243 -19 12 -12 61 23 158 25 71 110
148 92 85z"/>
<path d="M255 2841 c-71 -42 -117 -123 -141 -241 -18 -87 -13 -136 24 -239 33
-94 105 -164 186 -181 l31 -6 13 -529 c8 -292 15 -550 15 -575 2 -44 1 -45
-30 -48 -51 -5 -134 41 -197 109 -82 88 -83 91 -41 137 19 22 35 44 35 50 0 6
3 12 8 14 11 5 42 76 42 98 0 10 4 22 10 25 5 3 10 10 10 14 0 8 -195 111
-211 111 -5 0 -9 -79 -9 -193 0 -192 0 -194 28 -248 78 -153 190 -261 312
-301 l45 -15 7 -199 c4 -109 11 -293 15 -409 l8 -210 63 -3 64 -3 -7 53 c-14
115 -21 313 -12 325 5 7 17 13 26 13 41 0 198 102 241 157 14 17 25 23 39 18
11 -3 34 1 50 9 17 9 43 16 59 16 28 0 53 15 127 74 43 35 121 48 131 22 6
-14 9 -14 25 5 11 12 19 29 19 39 0 9 4 20 9 26 5 5 12 26 15 47 7 35 6 37
-16 33 -53 -12 -179 -28 -260 -33 -70 -4 -95 -2 -124 12 -30 14 -34 19 -23 29
15 14 95 40 176 57 105 21 311 -6 345 -46 31 -37 80 -206 113 -385 8 -47 20
-107 25 -135 17 -89 25 -239 12 -231 -7 4 -12 12 -12 17 0 31 -70 102 -151
155 -49 31 -89 61 -89 65 0 4 8 13 18 19 14 9 12 10 -13 6 -20 -3 -42 3 -65
17 -57 34 -110 79 -104 88 3 5 36 9 74 9 38 0 89 6 112 14 74 24 108 29 108
15 0 -7 6 -4 14 6 8 11 12 23 10 27 -8 13 -66 9 -114 -8 -25 -9 -92 -20 -150
-25 -58 -6 -119 -16 -137 -24 -17 -8 -33 -15 -36 -15 -3 0 -23 -10 -45 -23
-27 -15 -38 -27 -33 -35 6 -10 23 -5 69 18 33 16 64 30 68 30 3 0 23 -15 43
-32 21 -18 51 -43 67 -54 l29 -22 -40 -7 c-39 -7 -75 -18 -160 -49 -31 -11
-36 -16 -22 -21 19 -8 86 2 102 15 10 8 59 19 105 24 14 1 33 6 43 11 13 5 41
-7 98 -41 108 -65 155 -112 192 -192 16 -37 31 -68 32 -70 5 -7 35 12 35 22 0
50 113 251 148 263 9 4 30 18 47 31 42 35 110 62 156 62 l39 0 0 -42 0 -43
-104 0 c-57 0 -108 -4 -112 -8 -17 -17 24 -26 89 -20 49 4 75 2 95 -8 38 -20
42 -27 42 -91 0 -53 2 -58 22 -58 11 0 36 -11 54 -25 18 -14 36 -25 40 -25 4
0 4 42 0 93 -3 52 -3 97 1 101 4 4 6 24 4 45 l-2 39 63 -5 c55 -4 69 -1 113
22 28 15 71 39 98 52 26 13 47 28 47 34 0 16 -38 10 -77 -12 -97 -55 -120 -64
-163 -64 -74 0 -80 6 -80 74 l0 59 58 -5 c51 -4 62 -1 112 29 30 18 56 41 58
50 3 14 -10 11 -67 -18 -50 -26 -77 -35 -95 -30 -17 4 -23 11 -20 21 5 11 -1
15 -20 15 -23 0 -26 4 -26 34 0 31 4 36 45 52 37 14 62 16 134 10 69 -5 91 -3
99 7 18 21 4 27 -57 27 -31 0 -71 4 -89 9 -20 6 -32 6 -32 0 0 -5 -11 -9 -25
-9 -14 0 -37 -7 -51 -16 -13 -9 -27 -14 -30 -12 -3 3 -6 39 -7 79 l-2 73 105
12 c153 18 161 21 259 112 l36 33 -31 -15 c-23 -11 -31 -12 -30 -3 3 27 -18
20 -28 -10 -21 -63 -43 -74 -173 -89 -65 -7 -124 -13 -130 -14 -9 0 -13 19
-13 63 l0 63 55 33 c30 18 55 36 55 40 0 4 12 14 28 23 15 9 45 33 67 53 54
49 101 78 155 95 43 14 44 15 15 18 -17 1 -44 -4 -60 -12 -32 -17 -56 -7 -38
16 6 7 13 38 16 68 3 30 3 46 0 35 -3 -10 -11 -28 -18 -40 -7 -11 -20 -46 -29
-77 -9 -33 -24 -62 -35 -67 -10 -6 -38 -26 -62 -46 -24 -19 -49 -39 -54 -43
-6 -5 -24 -17 -40 -28 -17 -10 -33 -23 -37 -28 -13 -19 -16 17 -21 206 -4 180
-4 187 17 205 70 61 91 71 164 78 50 5 79 13 95 27 20 18 20 19 2 13 -11 -4
-45 -10 -75 -12 l-55 -5 35 38 c19 21 38 40 43 42 10 5 29 42 21 42 -3 0 -33
-27 -67 -59 -61 -58 -160 -131 -179 -131 -18 0 -2 136 19 167 11 15 24 39 28
53 4 14 25 60 46 102 44 88 53 139 11 64 l-27 -49 -9 64 -10 64 -7 -50 c-4
-27 -8 -72 -8 -99 -1 -62 -84 -236 -112 -236 -5 0 -27 26 -50 58 -23 31 -43
59 -45 60 -1 2 -33 6 -71 8 -64 3 -69 5 -100 41 l-33 38 6 -32 c6 -31 5 -33
-22 -34 -38 -1 121 -38 167 -38 33 -1 40 -7 82 -69 l47 -67 0 -102 c0 -56 -3
-104 -8 -107 -4 -2 -55 -2 -112 1 l-105 6 -45 46 c-25 26 -54 53 -65 61 -19
14 -19 14 -5 -5 8 -11 21 -27 30 -36 8 -9 27 -29 41 -46 26 -30 63 -40 218
-59 l53 -6 -4 -134 c-2 -73 -6 -136 -10 -139 -4 -4 -46 15 -95 42 -86 47 -137
70 -179 80 -11 2 -28 17 -37 31 -22 39 -77 89 -77 71 0 -8 9 -25 20 -39 11
-14 20 -28 20 -32 0 -4 -28 -5 -62 -1 -57 6 -67 10 -101 47 l-39 41 29 -42
c32 -48 49 -56 149 -73 66 -11 128 -38 347 -152 l37 -20 -5 -62 c-2 -33 -7
-100 -11 -148 l-6 -87 -42 1 c-72 1 -179 -40 -219 -85 -26 -30 -13 -32 25 -4
61 46 94 57 168 57 60 0 70 -2 70 -18 0 -12 -14 -21 -42 -30 -56 -17 -168 -71
-168 -81 0 -19 17 -17 83 14 40 18 85 35 100 39 26 6 28 5 25 -20 -2 -15 -10
-30 -18 -35 -8 -4 -46 -26 -83 -48 -38 -23 -72 -41 -76 -41 -10 0 -118 -121
-149 -167 -13 -19 -33 -55 -44 -80 -26 -59 -32 -48 -47 82 -13 112 -24 176
-54 315 -26 117 -33 251 -16 302 9 29 20 40 51 52 21 9 45 16 53 16 8 0 15 4
15 9 0 16 -38 23 -59 12 -11 -6 -24 -11 -29 -11 -14 0 -22 53 -10 67 10 12 3
33 -11 33 -12 0 -31 -48 -31 -80 0 -27 -22 -50 -47 -50 -7 0 -73 101 -73 112
0 1 25 1 55 0 47 -3 54 -2 49 12 -5 12 -20 16 -59 16 -43 0 -60 5 -84 26 -17
14 -29 30 -25 35 3 5 25 14 49 20 24 6 46 18 50 26 8 23 2 25 -43 9 -28 -10
-91 -15 -204 -16 -90 -1 -168 -2 -175 -3 -8 0 -9 -6 -3 -17 8 -15 28 -17 140
-18 123 -1 160 -8 160 -32 0 -4 -24 -10 -52 -14 -161 -19 -265 -49 -313 -89
-40 -33 -37 -57 3 -29 58 40 224 82 326 82 79 0 82 -2 122 -77 16 -29 10 -32
-34 -23 -128 28 -150 30 -193 21 -24 -6 -58 -11 -74 -11 -17 0 -65 -11 -107
-25 -70 -23 -78 -24 -105 -10 -15 8 -37 15 -48 15 -11 0 -31 6 -45 13 -66 34
-63 37 -58 -65 5 -80 10 -101 37 -152 30 -55 31 -59 14 -72 -39 -29 -120 -64
-157 -66 -49 -4 -53 7 -55 142 -1 52 -6 142 -11 200 -5 58 -12 153 -16 211
l-7 106 77 38 c145 72 238 184 276 333 9 35 15 42 36 42 37 0 97 34 134 76 35
40 69 108 70 136 0 16 -3 15 -35 -3 -21 -13 -39 -17 -47 -12 -7 4 -40 10 -73
13 l-60 5 -3 72 c-2 46 -8 75 -17 83 -24 20 -38 1 -32 -46 2 -24 0 -44 -5 -44
-10 0 -58 97 -58 119 0 8 -4 28 -9 45 -6 17 -15 57 -21 88 -6 32 -15 60 -20
63 -14 9 -60 -98 -74 -175 -12 -65 -12 -85 0 -150 15 -79 34 -140 44 -140 3 0
13 -15 23 -33 10 -18 31 -41 47 -52 41 -27 42 -37 19 -97 -26 -68 -64 -123
-110 -160 -43 -35 -146 -51 -166 -27 -10 14 -31 347 -40 646 l-4 142 29 15
c56 29 151 176 126 194 -5 4 -42 29 -81 55 -79 52 -88 63 -98 122 -12 75 -16
86 -28 82 -7 -2 -14 -23 -17 -48 -3 -24 -9 -44 -15 -43 -13 0 -74 90 -81 121
-9 36 12 98 47 138 26 30 28 35 13 35 -11 0 -33 -8 -49 -19z m438 -818 c-7 -2
-19 -2 -25 0 -7 3 -2 5 12 5 14 0 19 -2 13 -5z m733 -1177 c7 -40 -3 -66 -17
-45 -12 19 -11 79 1 79 5 0 12 -15 16 -34z m519 -406 c-3 -5 -11 -10 -16 -10
-6 0 -7 5 -4 10 3 6 11 10 16 10 6 0 7 -4 4 -10z"/>
<path d="M6106 2074 c-40 -14 -101 -56 -124 -84 -32 -40 -70 -149 -58 -169 6
-9 18 -6 116 27 52 18 122 79 143 126 8 17 18 50 22 74 l7 42 -34 -1 c-18 0
-51 -7 -72 -15z"/>
<path d="M5715 1943 c17 -56 57 -95 122 -116 l45 -15 -6 41 c-12 73 -82 137
-150 137 l-25 0 14 -47z"/>
<path d="M5388 1904 c-31 -10 2 -60 67 -102 34 -22 52 -26 112 -26 40 0 75 3
79 6 9 10 -34 60 -79 93 -30 21 -52 28 -100 31 -34 1 -70 1 -79 -2z"/>
<path d="M6060 1799 c-48 -27 -102 -86 -98 -107 5 -25 117 -29 175 -7 46 18
113 87 113 117 0 16 -9 18 -77 17 -58 0 -87 -5 -113 -20z"/>
<path d="M1599 1720 c13 -11 28 -20 33 -20 6 0 -1 9 -15 20 -33 26 -49 26 -18
0z"/>
<path d="M5582 1722 c-38 -21 -72 -67 -72 -99 0 -20 2 -21 33 -11 52 18 77 39
97 81 11 23 20 42 20 44 0 9 -50 0 -78 -15z"/>
<path d="M5725 1720 c10 -17 87 -122 95 -130 4 -3 19 -22 35 -43 32 -43 32
-45 15 -227 -5 -58 -14 -161 -20 -230 -15 -175 -20 -210 -29 -210 -8 0 -53 35
-126 100 -28 25 -65 56 -83 70 -26 20 -32 32 -33 65 -1 22 -5 51 -9 65 -7 23
-8 22 -9 -10 -2 -56 -13 -64 -47 -38 -28 22 -29 22 -14 1 8 -12 69 -81 135
-155 66 -73 135 -150 153 -171 l32 -38 -6 -102 c-4 -56 -9 -104 -11 -106 -3
-5 -30 3 -158 44 -22 7 -67 20 -100 30 -33 9 -78 23 -100 30 -22 7 -72 23
-112 35 l-71 22 -7 67 c-10 98 -25 112 -25 22 l0 -73 -36 6 c-19 4 -43 9 -52
12 -16 5 22 -14 150 -74 65 -30 67 -38 47 -131 -6 -27 -9 -65 -7 -83 3 -29 7
-22 32 55 17 48 35 92 41 97 7 6 32 -1 70 -20 75 -36 173 -80 245 -110 77 -33
83 -38 75 -76 -3 -18 -10 -88 -15 -156 -5 -68 -12 -153 -16 -191 l-7 -67 142
0 142 0 -7 103 -7 103 34 16 c19 9 70 28 114 43 44 15 84 32 89 36 19 17 38 9
107 -47 38 -31 71 -55 74 -53 2 2 -19 28 -46 58 -28 29 -48 58 -46 64 3 7 105
50 228 96 123 46 226 88 227 93 2 4 14 8 27 8 13 0 27 4 30 10 3 5 16 10 28
10 12 0 31 7 41 15 27 21 16 19 -117 -15 -65 -17 -132 -30 -151 -30 l-33 0 -7
77 c-3 42 -7 99 -7 127 -1 47 -3 44 -14 -34 -33 -216 -24 -191 -75 -205 -25
-7 -79 -20 -120 -30 -41 -9 -88 -21 -105 -26 -73 -22 -279 -68 -285 -64 -4 3
-10 55 -14 117 -4 62 -11 151 -16 198 -5 47 -12 135 -15 196 l-6 111 61 64
c34 35 121 124 193 198 115 117 119 131 12 41 -17 -14 -49 -39 -70 -56 -22
-18 -74 -59 -115 -92 -49 -39 -78 -57 -85 -51 -5 6 -13 51 -17 102 -3 51 -11
162 -17 247 -15 220 -22 271 -32 240 -4 -14 -7 -40 -8 -57 -1 -39 -5 -40 -34
-10 -63 62 -139 130 -132 117z"/>
<path d="M6230 1655 c0 -70 46 -137 120 -175 52 -27 60 -25 60 10 0 90 -88
200 -160 200 -16 0 -20 -6 -20 -35z"/>
<path d="M2880 1620 c201 -11 389 -27 520 -44 58 -7 107 -12 109 -10 10 9 -11
16 -75 25 -38 5 -100 14 -139 20 -38 6 -182 12 -320 14 -227 3 -236 3 -95 -5z"/>
<path d="M4057 1538 c48 -51 68 -86 64 -113 -3 -16 -1 -17 13 -6 9 7 16 17 16
22 0 16 -114 139 -128 139 -3 0 12 -19 35 -42z"/>
<path d="M6560 1563 c-40 -17 -113 -90 -107 -107 5 -16 104 -19 155 -5 30 8
55 26 82 57 22 25 40 48 40 52 0 23 -119 25 -170 3z"/>
<path d="M5334 1528 c4 -13 9 -38 13 -56 11 -62 95 -137 176 -156 23 -6 27 -3
27 16 0 26 -18 80 -39 118 -29 52 -105 100 -158 100 -22 0 -24 -3 -19 -22z"/>
<path d="M2754 1519 c-7 -12 45 -17 231 -23 93 -4 205 -11 250 -16 128 -16
377 -50 413 -57 17 -3 32 -1 32 4 0 23 -431 78 -690 88 -74 3 -157 7 -183 9
-26 1 -50 -1 -53 -5z"/>
<path d="M3808 1466 c-11 -11 -13 -31 -6 -96 4 -45 6 -86 3 -90 -3 -4 -22 -4
-42 1 -211 52 -548 92 -865 105 -111 4 -158 2 -158 -5 0 -6 1 -11 3 -12 1 -1
99 -5 217 -9 196 -8 391 -25 560 -50 59 -8 91 -15 247 -50 42 -9 54 -17 68
-43 l16 -32 -5 38 c-4 35 -3 37 11 25 15 -12 16 -9 10 27 -4 27 -3 35 3 25 8
-12 10 -9 10 13 0 15 5 27 11 27 6 0 9 10 7 23 -2 12 4 27 12 34 8 6 12 14 8
18 -9 9 -48 -17 -48 -34 0 -11 -3 -11 -15 -1 -13 11 -15 8 -15 -19 0 -18 -4
-30 -8 -27 -10 6 -3 74 7 81 10 6 1 65 -9 65 -5 0 -15 -6 -22 -14z"/>
<path d="M6116 1444 c-26 -38 -32 -121 -12 -167 9 -22 21 -37 28 -35 20 7 57
91 57 128 0 36 -26 91 -46 97 -5 2 -18 -8 -27 -23z"/>
<path d="M4680 1440 c0 -11 40 -11 85 0 25 6 20 8 -27 9 -33 0 -58 -3 -58 -9z"/>
<path d="M4266 1388 c-3 -23 -7 -63 -9 -88 l-3 -45 -12 30 c-7 17 -17 38 -22
47 -6 10 -10 27 -10 39 0 12 -5 19 -12 16 -8 -2 -12 -18 -10 -38 1 -23 -1 -29
-7 -20 -17 27 -31 7 -16 -23 8 -15 15 -38 15 -49 0 -11 7 -29 17 -39 9 -11 11
-18 5 -18 -7 0 -12 -10 -12 -22 -1 -21 -4 -19 -35 17 -26 31 -37 37 -46 28 -9
-9 -3 -24 26 -63 21 -28 35 -54 31 -57 -3 -3 -8 2 -12 11 -9 25 -51 38 -75 26
-24 -13 -13 -27 41 -52 19 -9 54 -37 78 -61 41 -42 43 -46 40 -97 l-3 -52 -27
42 c-16 23 -28 50 -28 60 0 10 -4 22 -10 25 -5 3 -10 17 -10 31 0 15 -6 24
-15 24 -9 0 -15 -9 -15 -22 0 -20 -1 -20 -18 -5 -10 10 -22 17 -25 17 -11 0
-8 -48 3 -55 6 -4 8 -15 5 -25 -4 -13 6 -30 36 -57 48 -44 109 -134 109 -160
-1 -15 -4 -14 -21 7 -12 14 -32 39 -46 55 -13 17 -45 58 -71 93 -25 34 -52 62
-59 62 -26 0 -12 -45 29 -94 23 -28 49 -60 57 -70 9 -11 -7 -1 -35 22 -47 39
-84 54 -84 33 0 -5 30 -37 66 -70 36 -34 63 -65 60 -68 -3 -4 -6 -1 -6 5 0 7
-9 12 -20 12 -11 0 -20 -5 -20 -12 0 -6 -6 -3 -14 7 -12 16 -16 17 -30 6 -9
-7 -13 -18 -9 -25 3 -6 0 -6 -8 2 -20 19 -29 15 -29 -13 0 -14 7 -28 15 -31 8
-4 15 -14 15 -24 0 -12 17 -25 49 -39 27 -11 53 -21 58 -21 30 -2 83 -78 83
-121 0 -32 -2 -31 -101 67 -55 54 -102 101 -104 103 -3 2 -11 -1 -18 -7 -8 -7
-16 -10 -19 -7 -2 2 -35 9 -74 15 -38 6 -109 18 -159 26 -49 8 -141 19 -203
26 l-113 12 7 30 c3 17 10 36 14 41 4 6 11 25 15 42 3 18 10 35 15 38 10 6
159 -8 305 -30 184 -27 195 -28 195 -18 0 11 -17 14 -315 53 -93 12 -171 24
-173 25 -2 2 4 24 12 49 9 26 16 56 16 68 0 20 3 21 93 14 50 -4 117 -11 147
-16 143 -25 166 -28 175 -22 5 3 -4 9 -20 14 -42 11 -302 48 -342 48 -22 0
-33 5 -33 14 0 23 -20 29 -39 12 -15 -13 -33 -14 -136 -6 -338 26 -413 30
-553 30 -95 0 -152 -4 -152 -10 0 -6 56 -10 148 -10 81 -1 208 -5 282 -10 74
-5 185 -13 245 -16 137 -9 158 -15 146 -46 -5 -13 -14 -41 -21 -63 -16 -50
-23 -54 -69 -45 -20 5 -119 13 -220 20 -136 8 -188 15 -199 26 -11 11 -17 12
-28 3 -10 -8 -74 -10 -221 -8 -140 3 -207 1 -210 -7 -2 -7 21 -10 64 -10 38 1
134 0 214 -2 l146 -2 11 -51 c7 -28 12 -65 12 -82 l0 -32 -237 3 c-248 4 -363
-2 -363 -20 0 -7 33 -8 105 -4 58 4 105 6 105 4 0 -2 11 -34 24 -73 l24 -70
-91 -6 c-132 -9 -197 -19 -197 -31 0 -7 14 -8 38 -4 20 3 85 9 143 13 116 6
112 8 137 -57 33 -86 41 -80 -109 -82 -155 -1 -149 -1 -171 -13 -11 -7 40 -9
150 -7 l167 3 33 -66 c17 -36 32 -69 32 -73 0 -4 -105 -8 -232 -9 -242 -2
-270 -4 -266 -17 2 -5 41 -7 88 -5 117 5 385 2 413 -5 13 -3 30 -18 37 -33 8
-16 25 -45 37 -65 13 -21 23 -40 23 -44 0 -3 -124 -3 -276 1 -207 6 -275 5
-270 -4 5 -7 48 -11 124 -12 64 0 191 -4 281 -8 162 -8 165 -9 183 -35 13 -16
29 -26 45 -26 25 0 26 0 8 20 -25 28 -15 34 50 25 45 -5 55 -10 55 -26 0 -12
7 -19 20 -19 11 0 20 7 20 15 0 8 7 15 15 15 8 0 15 -7 15 -15 0 -19 30 -19
44 0 9 13 24 14 106 4 52 -6 145 -12 205 -14 l110 -4 -110 15 c-60 8 -154 19
-207 26 -54 6 -98 12 -98 12 0 1 11 30 23 66 l23 65 55 -2 c30 -2 88 -7 129
-13 41 -5 138 -16 215 -25 77 -8 171 -20 208 -27 46 -8 71 -8 78 -1 7 7 -33
15 -123 27 -73 9 -167 21 -208 26 -41 6 -120 15 -175 20 -55 6 -117 14 -137
18 l-37 7 15 35 c46 105 46 105 89 102 35 -2 139 -15 295 -37 25 -3 92 -13
150 -21 160 -24 190 -27 190 -17 0 8 -113 27 -355 59 -60 8 -135 19 -166 24
-30 6 -74 10 -97 10 -50 0 -53 14 -20 90 21 48 23 50 62 50 23 0 70 -5 106
-11 36 -6 97 -14 135 -19 39 -5 117 -17 175 -25 58 -9 129 -20 159 -24 37 -5
56 -13 64 -27 9 -16 56 -64 108 -110 9 -8 21 -14 28 -14 6 0 -17 27 -52 59
-35 33 -69 71 -77 85 -11 21 -21 26 -50 26 -21 0 -62 5 -91 10 -81 16 -346 53
-471 67 -60 6 -68 15 -48 51 5 9 18 39 30 66 19 46 21 48 52 42 17 -3 72 -11
122 -16 87 -10 149 -19 261 -40 28 -5 73 -12 100 -16 43 -6 59 -15 110 -63 76
-71 79 -79 16 -40 -28 18 -54 29 -57 26 -15 -15 11 -40 110 -109 103 -70 106
-73 106 -109 0 -21 5 -41 10 -44 6 -4 10 -62 10 -141 l0 -134 28 0 29 0 6 190
5 191 28 22 c32 26 104 78 157 112 22 15 37 33 37 45 0 26 -6 25 -46 -5 -18
-14 -36 -25 -40 -25 -4 0 -17 -7 -28 -17 -12 -9 9 14 47 51 47 46 67 74 67 91
0 14 -3 25 -7 25 -4 0 -54 -48 -110 -106 l-103 -106 0 40 c0 36 5 45 43 75 23
19 68 51 100 71 51 32 56 38 47 56 -6 11 -7 20 -1 20 5 0 12 7 15 15 11 30
-24 27 -59 -4 -20 -17 -38 -31 -41 -31 -3 0 15 26 40 58 46 59 59 102 31 102
-9 0 -21 -11 -27 -25 -12 -27 -16 -29 -36 -17 -9 6 5 24 48 61 33 29 60 57 60
62 0 19 -41 8 -73 -21 -57 -49 -53 -34 7 31 31 33 56 67 56 75 0 23 -31 30
-42 9 -6 -9 -31 -41 -57 -69 -25 -29 -61 -70 -78 -92 -29 -34 -33 -36 -33 -17
0 45 32 91 81 118 27 14 49 30 49 36 0 20 2 25 17 41 19 21 13 54 -9 50 -9 -1
-19 2 -23 8 -10 16 -25 12 -25 -7 -1 -23 -16 -50 -57 -99 l-33 -39 0 48 c0 33
4 47 14 47 25 0 68 42 63 61 -3 10 7 34 24 56 16 21 29 44 29 51 0 18 -27 15
-39 -5 -6 -10 -11 -13 -11 -7 0 5 7 19 15 30 18 24 20 77 3 72 -11 -4 -53 -74
-87 -143 -7 -14 -10 13 -10 96 -1 101 -3 118 -20 133 -19 17 -20 16 -25 -26z
m-27 -246 c-1 -46 -1 -46 -9 -12 -4 19 -8 40 -10 45 -4 18 0 26 10 20 6 -3 9
-27 9 -53z m-941 -262 c130 -10 148 -15 135 -33 -5 -7 -17 -38 -28 -69 -10
-32 -23 -58 -29 -59 -24 -2 -87 1 -222 13 l-142 12 -11 37 c-6 20 -11 56 -11
79 l0 43 93 -7 c50 -3 147 -10 215 -16z m1083 -137 c-42 -50 -45 -55 -59 -78
-10 -17 -11 -11 -12 36 l0 55 38 11 c62 17 66 15 33 -24z m-1476 -22 l60 -6 7
-50 c4 -27 10 -60 13 -73 6 -23 4 -24 -37 -18 -24 3 -97 5 -164 5 l-121 1 -22
68 c-11 37 -21 71 -21 75 0 8 200 7 285 -2z m363 -20 c51 -4 95 -10 98 -14 3
-3 -4 -27 -16 -54 -43 -98 -41 -96 -80 -89 -19 4 -81 9 -136 13 l-102 6 -11
68 c-6 37 -11 73 -11 80 0 12 13 12 258 -10z m857 -11 c3 -5 25 -15 48 -21 53
-14 66 -25 60 -50 -4 -15 -11 -18 -27 -13 -25 7 -116 94 -99 94 7 0 15 -4 18
-10z m-1172 -136 c27 -5 37 -12 37 -25 0 -10 5 -39 12 -64 8 -28 9 -48 3 -54
-6 -5 -66 -4 -147 2 l-137 11 -19 50 c-11 28 -23 59 -27 69 -7 16 3 17 116 17
68 0 141 -3 162 -6z m272 -23 c80 -7 81 -8 39 -100 -24 -51 -26 -53 -57 -48
-18 3 -58 9 -90 13 -31 3 -60 11 -64 18 -4 6 -10 37 -13 69 l-6 57 61 -1 c33
-1 92 -4 130 -8z m-316 -141 c54 -6 98 -16 103 -23 4 -6 8 -41 8 -76 l0 -63
-31 6 c-17 3 -65 6 -105 6 l-74 0 -35 70 c-19 38 -35 74 -35 80 0 13 48 13
169 0z m274 -20 c30 0 47 -4 47 -12 0 -7 -11 -42 -25 -79 l-26 -66 -47 4 c-26
3 -50 8 -54 12 -3 3 -10 39 -14 80 l-7 74 39 -6 c21 -4 60 -7 87 -7z m-193
-158 l45 -7 5 -69 c6 -80 4 -81 -75 -71 l-54 6 -45 75 -46 74 63 -1 c34 0 82
-4 107 -7z m176 -23 c9 -14 -39 -139 -53 -139 -8 0 -15 6 -17 13 -10 37 -25
131 -22 136 6 9 85 1 92 -10z"/>
<path d="M4583 1423 c-13 -2 -23 -7 -23 -11 0 -4 -23 -20 -50 -37 -35 -21 -48
-34 -43 -45 3 -8 11 -33 17 -55 6 -22 14 -44 17 -50 4 -5 10 -37 14 -70 4 -33
10 -64 14 -70 19 -26 35 -194 36 -374 0 -107 1 -187 3 -178 4 22 7 22 46 -8
18 -14 37 -25 42 -25 6 0 22 -6 36 -12 l26 -13 -5 -237 -6 -238 50 0 50 0 5
292 c3 214 7 293 16 296 7 2 12 18 13 35 0 18 3 26 6 20 8 -22 54 -14 92 14
58 44 63 52 69 100 l5 45 -34 -7 c-81 -18 -122 -54 -132 -115 -4 -21 -4 -21
-6 6 -2 52 18 93 47 100 15 3 47 10 72 15 38 9 46 8 57 -7 7 -10 20 -15 33
-11 11 3 20 1 20 -4 0 -5 4 -9 9 -9 4 0 6 11 3 25 -3 16 0 25 8 25 12 0 11 16
-5 95 -11 50 -125 116 -125 72 0 -12 -43 -57 -55 -57 -9 0 -5 39 4 45 6 3 13
27 17 53 3 26 10 52 14 57 15 18 6 80 -11 83 -17 3 -39 -36 -39 -71 -1 -21 -1
-21 -15 -3 -7 10 -18 15 -24 11 -15 -8 -14 8 1 23 9 9 9 18 1 34 -6 13 -14 31
-17 41 -4 12 -14 17 -28 16 -30 -4 -48 8 -48 32 0 14 -7 19 -25 19 -23 0 -25
-4 -26 -47 0 -47 -1 -47 -16 -25 -8 12 -22 22 -29 22 -19 0 -18 -60 1 -96 8
-16 15 -37 15 -46 0 -9 4 -19 9 -23 15 -9 24 -87 13 -114 l-9 -25 -7 29 c-4
17 -12 33 -18 36 -6 4 -13 33 -17 65 -5 53 -8 59 -29 58 -18 0 -22 5 -22 28 0
31 -24 63 -39 53 -12 -7 -30 25 -24 42 2 6 -1 14 -6 18 -6 3 -11 17 -11 31 0
13 -4 24 -10 24 -5 0 -10 9 -10 21 0 22 22 49 39 49 6 0 11 4 11 9 0 9 42 28
90 42 24 6 23 7 -5 6 -16 0 -40 -2 -52 -4z m196 -315 c0 -10 -3 -18 -9 -18 -5
0 -9 21 -9 48 1 42 2 44 9 17 4 -16 8 -38 9 -47z m56 -40 c-3 -13 -7 -41 -9
-62 -2 -27 -9 -40 -20 -42 -11 -1 -16 5 -16 22 0 13 5 24 10 24 6 0 10 13 10
28 0 15 5 33 12 40 17 17 19 15 13 -10z m-242 -101 c-4 -20 1 -34 21 -54 26
-25 66 -100 66 -122 0 -5 5 -11 10 -13 6 -2 13 -61 16 -143 3 -77 2 -135 -3
-129 -4 6 -21 14 -37 18 -61 15 -66 31 -66 217 0 101 -4 170 -10 174 -5 3 -10
32 -9 63 0 40 3 51 9 37 4 -11 5 -32 3 -48z m137 -93 c0 -8 -4 -12 -10 -9 -5
3 -10 13 -10 21 0 8 5 12 10 9 6 -3 10 -13 10 -21z m316 -49 c18 -15 18 -15
-5 -13 -14 2 -26 9 -29 16 -5 17 10 15 34 -3z"/>
<path d="M4840 1409 c0 -5 5 -7 10 -4 6 3 10 8 10 11 0 2 -4 4 -10 4 -5 0 -10
-5 -10 -11z"/>
<path d="M5670 1402 c-35 -24 -44 -33 -58 -65 -15 -35 -15 -37 3 -37 46 0 125
62 125 97 0 28 -32 31 -70 5z"/>
<path d="M4101 1394 c0 -11 3 -14 6 -6 3 7 2 16 -1 19 -3 4 -6 -2 -5 -13z"/>
<path d="M4906 1381 c-3 -5 1 -12 10 -15 22 -8 25 -4 9 11 -8 7 -16 9 -19 4z"/>
<path d="M4080 1360 c0 -5 5 -10 10 -10 6 0 10 5 10 10 0 6 -4 10 -10 10 -5 0
-10 -4 -10 -10z"/>
<path d="M4067 1325 c-3 -11 -13 -38 -21 -60 -8 -21 -17 -62 -19 -90 -2 -27
-2 -38 0 -22 2 15 8 27 12 27 5 0 11 26 15 57 4 31 11 62 17 70 6 7 9 18 7 25
-3 8 -7 5 -11 -7z"/>
<path d="M5186 1311 c-17 -6 -15 -10 16 -44 19 -20 47 -41 62 -47 34 -13 113
-13 121 0 8 13 -41 66 -80 84 -35 17 -87 20 -119 7z"/>
<path d="M1248 1280 c-51 -32 -100 -37 -186 -21 -69 13 -225 -29 -239 -65 -9
-24 3 -27 34 -10 84 47 175 58 268 35 50 -13 107 4 160 46 48 39 19 50 -37 15z"/>
<path d="M5012 1286 c7 -8 15 -12 17 -11 5 6 -10 25 -20 25 -5 0 -4 -6 3 -14z"/>
<path d="M2493 1253 c9 -2 23 -2 30 0 6 3 -1 5 -18 5 -16 0 -22 -2 -12 -5z"/>
<path d="M3944 1243 c-45 -140 -41 -134 -83 -118 -112 44 -697 103 -1031 105
-197 0 -86 -17 180 -29 416 -18 750 -56 858 -98 12 -5 31 -21 41 -37 l18 -27
32 42 c21 29 27 45 20 50 -7 4 -12 34 -13 68 -1 59 -11 79 -22 44z"/>
<path d="M5023 1252 c-19 -3 -23 -10 -23 -37 0 -19 5 -37 10 -40 6 -3 10 -17
10 -30 0 -37 60 -108 95 -112 16 -3 34 -8 40 -12 5 -5 20 -11 33 -14 19 -4 22
-1 22 27 0 42 -44 129 -81 160 -16 14 -29 29 -29 35 0 6 -6 8 -14 5 -7 -3 -20
1 -27 8 -8 7 -24 12 -36 10z"/>
<path d="M4000 1034 c0 -14 4 -23 10 -19 6 3 10 15 10 26 0 10 -4 19 -10 19
-5 0 -10 -12 -10 -26z"/>
<path d="M5325 1028 c-11 -6 -28 -18 -38 -27 -18 -15 -18 -16 0 -22 10 -4 39
-8 65 -8 36 -1 53 5 75 24 24 21 26 26 13 35 -20 13 -90 12 -115 -2z"/>
<path d="M6735 1026 c-41 -19 -72 -54 -90 -105 -22 -64 -20 -84 8 -76 66 21
127 94 127 154 0 45 -2 46 -45 27z"/>
<path d="M5103 975 c0 -22 2 -30 4 -17 2 12 2 30 0 40 -3 9 -5 -1 -4 -23z"/>
<path d="M3992 960 c0 -19 2 -27 5 -17 2 9 2 25 0 35 -3 9 -5 1 -5 -18z"/>
<path d="M6328 926 c-16 -12 -14 -16 21 -54 52 -56 101 -75 174 -69 32 3 61 8
64 11 12 12 -48 74 -97 99 -57 30 -132 36 -162 13z"/>
<path d="M3970 870 c0 -22 2 -40 4 -40 2 0 6 18 8 40 2 22 0 40 -4 40 -5 0 -8
-18 -8 -40z"/>
<path d="M7007 858 c-28 -38 -49 -114 -40 -146 5 -21 6 -21 37 -4 17 9 33 20
34 25 2 4 10 7 17 7 23 0 36 37 29 78 -14 80 -38 92 -77 40z"/>
<path d="M7251 873 c0 -7 -30 -44 -66 -82 -56 -59 -77 -91 -60 -91 5 0 66 65
110 117 15 19 25 40 22 50 -3 10 -5 12 -6 6z"/>
<path d="M6825 820 c-5 -7 -8 -39 -8 -70 0 -43 5 -65 22 -89 26 -36 31 -37 61
-13 20 16 21 24 15 62 -9 51 -76 133 -90 110z"/>
<path d="M7236 765 c-10 -17 -44 -54 -74 -82 -58 -56 -54 -63 24 -37 69 23 76
32 72 95 l-3 53 -19 -29z"/>
<path d="M6395 734 c-34 -8 -69 -40 -62 -57 7 -18 82 -32 133 -24 19 3 48 16
65 28 30 21 30 21 9 36 -21 15 -109 25 -145 17z"/>
<path d="M6674 681 l-29 -16 33 -3 c38 -4 62 3 62 17 0 17 -37 18 -66 2z"/>
<path d="M7015 672 c-16 -10 -32 -18 -34 -20 -3 -1 2 -9 11 -18 14 -14 17 -13
37 12 11 14 21 31 21 35 0 11 2 11 -35 -9z"/>
<path d="M1156 604 c-42 -46 -53 -54 -85 -54 -59 0 -199 -28 -224 -45 -13 -8
-27 -12 -30 -8 -4 3 -7 -1 -7 -10 0 -22 18 -31 34 -18 21 18 122 41 179 41 68
1 112 23 170 86 38 42 44 53 31 58 -20 7 -11 14 -68 -50z"/>
<path d="M4925 590 c-16 -17 -16 -20 -3 -15 9 4 19 13 22 21 7 19 2 18 -19 -6z"/>
<path d="M6445 596 c-36 -16 -59 -41 -50 -56 3 -5 25 -10 48 -10 33 0 51 7 80
31 20 17 35 35 32 40 -9 13 -75 10 -110 -5z"/>
<path d="M5170 586 c0 -43 36 -95 87 -123 31 -18 33 -17 33 18 0 36 -32 94
-60 109 -27 14 -60 12 -60 -4z"/>
<path d="M7090 563 c1 -13 56 -82 82 -102 14 -11 37 -23 51 -26 22 -6 27 -4
28 11 0 11 1 36 3 57 4 51 -19 67 -101 67 -35 0 -63 -3 -63 -7z"/>
<path d="M7006 524 c-20 -53 6 -150 48 -180 19 -13 22 -13 33 3 28 37 11 114
-36 166 -29 31 -36 33 -45 11z"/>
<path d="M5130 422 c-25 -21 -25 -21 -5 -36 47 -36 195 -3 150 34 -9 7 -40 15
-68 18 -42 3 -57 0 -77 -16z"/>
<path d="M4485 389 c-11 -16 -1 -19 13 -3 7 8 8 14 3 14 -5 0 -13 -5 -16 -11z"/>
<path d="M5212 314 c-39 -17 -66 -43 -86 -83 -37 -70 -10 -89 71 -50 49 23 82
64 93 115 7 32 6 34 -19 33 -14 0 -41 -7 -59 -15z"/>
<path d="M5330 319 c0 -28 25 -107 42 -131 15 -21 68 -58 85 -58 1 0 3 16 3
35 0 55 -24 101 -71 134 -44 33 -59 38 -59 20z"/>
<path d="M6559 250 c-54 -28 -56 -47 -9 -55 52 -9 96 2 120 28 20 21 20 21
-11 34 -41 17 -57 16 -100 -7z"/>
<path d="M6536 142 c-11 -18 66 -89 110 -101 46 -12 104 -5 104 14 0 6 -18 29
-41 50 -36 33 -48 38 -104 42 -38 4 -65 1 -69 -5z"/>
<path d="M6453 97 c-15 -18 -24 -63 -17 -81 8 -21 74 -22 74 -2 0 19 -28 83
-39 90 -5 3 -13 0 -18 -7z"/>
<path d="M3856 15 c-3 -9 0 -15 9 -15 16 0 20 16 6 24 -5 3 -11 -1 -15 -9z"/>
<path d="M1750 9 c-19 -5 -14 -7 23 -8 26 -1 47 1 47 3 0 8 -46 12 -70 5z"/>
<path d="M2023 3 c20 -2 54 -2 75 0 20 2 3 4 -38 4 -41 0 -58 -2 -37 -4z"/>
</g>
</svg>
